<svg xmlns="http://www.w3.org/2000/svg" width="30" height="27" viewBox="0 0 30 27">
    <path fill="#EE9BBE" fill-rule="nonzero" d="M7.56.011a7.398 7.398 0 0 0-5.347 2.284c-2.945 3.051-2.943 7.955 0 11.011l12.108 12.57a.57.57 0 0 0 .814 0c4.04-4.185 8.07-8.368 12.11-12.552 2.944-3.051 2.944-7.96 0-11.011a7.388 7.388 0 0 0-10.693 0L14.729 4.19l-1.824-1.895A7.398 7.398 0 0 0 7.56.012zm0 1.116c1.632 0 3.27.64 4.53 1.947l2.231 2.337a.57.57 0 0 0 .814 0l2.231-2.32c2.525-2.615 6.54-2.615 9.064 0 2.525 2.616 2.525 6.838 0 9.454-3.903 4.043-7.798 8.084-11.701 12.126L3.028 12.527c-2.523-2.618-2.525-6.838 0-9.454a6.264 6.264 0 0 1 4.531-1.947z"/>
</svg>
