<svg version="1" xmlns="http://www.w3.org/2000/svg" width="2362.667" height="2362.667" viewBox="0 0 1772 1772"><path d="M786 50c-4.1.4-11.1 1-15.5 1.4-4.4.4-8.7.9-9.5 1.1-.8.2-4 .6-7 1-6.3.6-5.8.5-25 4-17.6 3.1-44.6 10.3-65.6 17.6-89.7 30.9-169 88.9-225.8 165.4-10.4 13.8-30.6 44.3-30.6 46 0 .2-1.4 2.8-3.1 5.7-4.9 8.3-17.2 33.2-22.4 45.3-12 28.2-22 59.7-28.3 89.7-2.2 10.2-2.7 18.4-2.6 39.8 0 13.5.5 17.4 3.2 30 1.7 8 3.4 16.5 3.7 19 .3 2.5.8 5.6 1 7 1.5 9.9 2.1 43.2 1 57.5-.2 3.3-.7 9.4-1 13.5-.3 4.1-.8 9.7-1.1 12.5-.3 2.7-.7 6.8-.9 9-.2 2.2-.7 7.6-1.2 12-1.6 16.2-.6 42.6 2.1 56.8 5.2 27 8.4 38.2 24 83.2 4.8 14.1 9.9 39.9 13.1 67.4.4 3 .9 6.3 1.1 7.5.2 1.1 1 5.9 1.8 10.6 2.1 12.2 5.2 21.2 8 23.9 3.2 3 12.7 3.9 21.1 2 3.3-.7 6.2-1.3 6.5-1.4 3.6-.7 15.3-5.4 22.1-8.9 17.7-8.9 29.4-18.2 38.1-30.2 5.4-7.4 14.4-25.5 19.2-38.6 6.1-16.6 15-49.3 17.1-62.8.3-1.9.7-4.6 1-6 4.1-21.5 4.1-81.2.1-103.5-.3-1.7-.8-4.8-1.1-7-.7-4.3-3.9-15.2-6-20-.7-1.7-3.6-8.2-6.5-14.5-7.1-15.5-14.2-31.8-18-41.5-3.3-8.1-11.8-31.7-12.5-34.5-.2-.8-1.8-6.9-3.5-13.5-5.8-22.3-7.5-34.6-7.5-54.5l.1-13.5 6.3-18.5c3.5-10.2 6.6-19 7-19.5.4-.6 1.6-3.3 2.6-6 2.6-7.1 14.6-31.1 18.9-37.8 2-3.1 3.6-5.9 3.6-6.2 0-1.7 18.6-28.2 28.3-40.2 42.2-52.5 99.5-92.2 163.9-113.7 11.9-4 18.6-6 24-7.2 1-.2 2.6-.6 3.6-.8 7.2-1.8 15.3-3.6 18.2-4 1.9-.3 4.6-.8 6-1 20.7-3.6 40.8-5.2 62.6-5 15.8.1 32.2.9 37.2 1.9.9.1 4.4.6 7.7.9 7.1.8 8.8 1.1 22.5 3.7 57.6 11 119.5 40.9 162 78.5 25.3 22.4 41.8 40.3 58.8 64.2 36.2 50.6 57.8 108.1 64.6 171.7 1.4 12.7 1.6 62.8.3 68.5-.3 1.4-.8 5.2-1.1 8.5-.3 3.3-.8 7.1-1 8.5-.3 1.4-.7 4.3-1 6.5-.8 6.1-3.3 18-5.6 27.5-1.2 4.7-2.3 9.4-2.5 10.5-.3 1.1-2.4 8.1-4.9 15.5-22.5 69.6-65.5 129.6-125.3 174.8-19.4 14.7-57.5 30.9-89.8 38.2-4.9 1.1-10.8 2.5-13 3-2.2.5-5.7 1.2-7.9 1.5-2.1.3-4.1.7-4.5.9-.9.6-14.5 2.1-28.6 3.1-12.5 1-18.9 1.5-25.5 2.1-12.3 1.1-13.5 1.2-21.5 1.9-4.4.3-9.6.8-11.5 1-1.9.3-6.4.7-10 1-3.6.3-8.1.7-10 1-1.9.2-6.2.7-9.5 1-5.3.5-41.9 4.8-51.5 6-1.9.2-6.9.9-11 1.5s-8.4 1.3-9.5 1.4c-5.6.9-12.2 1.9-14 2.2-1.1.2-3.3.6-5 .9-5.3.9-7.9 1.4-15.5 2.9-11 2.2-53.2 15.1-62.5 19.1-1.6.7-4.1 1.6-5.5 2-8.7 2.7-40.2 17.1-53.6 24.5-41.4 23.2-69.7 50.9-85.9 84.2-10.2 20.8-14.8 41.5-14.9 66.8-.1 22.3.5 27.1 6 44.5 17.8 55.8 75.9 98.3 172.4 126 14.8 4.2 37.4 9.9 48 12 .8.2 6 1.2 11.5 2.4 5.5 1.1 12.7 2.5 16 3.1 3.3.5 7.1 1.2 8.5 1.5 4.3.9 23.2 3.4 30 4 3.6.3 7.6.8 9 1 1.4.2 5.2.7 8.5 1 3.3.3 7.8.8 10 1 2.2.3 6.3.7 9 1 2.8.3 6.6.8 8.5 1 1.9.2 6 .7 9 1 3 .3 6.6.8 8 1 1.4.3 4.6.7 7.2 1 2.6.3 7.8.9 11.5 1.5 3.8.5 8.6 1.2 10.8 1.5 2.2.3 4.9.8 6.1 1 1.1.3 4 .7 6.5 1 2.4.3 5.5.7 6.9 1 1.4.3 3.9.8 5.5 1.1 68.4 12.1 110.6 30.4 121.4 52.8 10.7 21.9-3.2 40.7-46.1 62.3l-10.8 5.4v45c0 38.5.2 44.9 1.4 44.9 2.8 0 46.2-14.8 58.6-20 62.7-26.2 97.6-57.6 109.4-98.3 9.3-32.1 2.3-72.1-17.7-101.7-17.6-26-47.5-48.5-86.9-65.4-2.1-.9-5.3-2.2-7-3-8.5-3.7-25.6-9.5-44.8-15.4-14.2-4.3-50.5-13-70-16.8-4.1-.8-8.6-1.6-10-1.9-1.4-.3-5-.9-8-1.5-6-1.1-9.2-1.7-13-2.5-1.4-.2-3.8-.7-5.5-.9-1.6-.3-11.3-1.9-21.5-3.6-10.2-1.8-19.4-3.3-20.5-3.5-24.1-3.4-81-14.1-93.9-17.6-2.2-.6-4.8-1.3-5.6-1.4l-8-2c-3.6-.9-7.5-1.8-8.7-2.1-1.2-.2-3.5-.9-5-1.5-1.6-.6-2.8-1-2.8-.9 0 1.3-28.4-8.5-39.2-13.5-24.7-11.6-36.8-24.7-38-41.7-1.6-22.4 16.8-43.4 51.7-58.9 15.7-7 46.7-17 57-18.4 2.8-.4 8.2-1.3 12-2 4.2-.8 8.3-1.4 13-2 2.5-.3 5.6-.7 7-1 1.4-.3 4.4-.8 6.8-1 4.7-.6 9.8-1.2 15.7-1.9 3.5-.4 8.5-.9 23.5-2.2 1.9-.1 13.2-.5 25-.8 23-.7 43.9-1.5 50.6-2 9.1-.8 18-1.7 20.4-2.1 1.4-.3 4.5-.7 7-1 2.5-.3 7-.9 10-1.5 3-.5 6.9-1.1 8.5-1.4 2.4-.3 17-3.4 24.5-5.1 1.3-.3 9.7-2.4 20-5.1 6.7-1.7 27.8-8.7 38.5-12.7 17.7-6.7 25.1-9.9 45.5-20.2 8-3.9 17.5-9.1 21.3-11.4 3.7-2.2 7-4.1 7.3-4.1.3 0 2.4-1.3 4.7-2.8 2.3-1.6 9.2-6.2 15.2-10.2 12.9-8.6 23.4-16.5 35.9-26.9 13.5-11.2 13.8-11.5 28.1-25.6 17.8-17.6 25.7-26.6 42.8-48.5 3.3-4.2 11.9-16.5 17.2-24.5 3.2-5 6.6-10.1 7.5-11.5 1.7-2.5 3.8-6.1 11.8-20.5 10.3-18.4 23.6-48.5 31-70 5.5-16 12.1-38.5 13.6-46.5.3-1.4 1.2-5.9 2.1-10 2-9.2 2.1-9.4 3-15 .4-2.5.9-5.4 1.1-6.5.7-3.6 1.2-6.9 2.3-14.5.9-6.7 1.4-10.9 2.7-24 2.1-21.7 2.1-73.9 0-85.6-.2-1-.7-5.1-1-8.9-.8-8.5-3.2-25.1-4.6-32.6-.6-3-1.3-7-1.6-8.9-.3-1.9-.7-4.3-1-5.2-.3-1-.7-3-1-4.5-1.1-6.7-8.8-34.6-12.9-46.8-19.4-58.3-50.9-114.3-89.4-158.9-9.6-11.2-12.7-14.5-22.9-25-58.4-59.5-130.8-102.4-211.2-125.1-5.2-1.5-10.3-2.9-11.2-3.1-1-.2-2.6-.6-3.5-.8-3.9-.9-10.9-2.5-13.3-3-15.1-3-20.3-3.9-31.5-5.6-7.1-1-16.1-2.2-20-2.5-3.8-.3-8.6-.9-10.5-1.1-5.6-.9-62.8-1.2-71-.4zM420.5 723.4c3.7 2.4 6.8 9.8 5.9 13.9-1.5 7.2-7.2 11.6-14.3 11.2-13.4-.8-17.6-18.4-5.9-25.5 3.8-2.3 10.5-2.1 14.3.4z"/><path d="M1238.4 922.8l-11 .3v156.2l.1 156.2-68-.1c-37.4 0-68.3.1-68.8.3-.4.2 1.6 2.4 4.5 4.9 16.5 14 32.5 38.1 39.3 58.7 2.4 7.4 2.7 8.7 3.9 15.7.3 1.9.9 5.1 1.2 7 .4 1.9.8 11 .9 20.1.3 17.6-1.3 30-5.5 44.1-1.1 3.6-2 6.8-2 7 0 .2 21.1.3 47 .3 30.9 0 47.1.3 47.3 1 .1.5.2 71.1.2 156.7-.1 109.6.2 155.8.9 155.9.6.1 38.8.2 84.9.3l83.7.1V923h-12.7c-7.1 0-40.2-.1-73.8-.3-33.5-.1-66-.1-72.1.1zm-336.3 86.4c-5.3.9-8.9 1.4-20.1 2.8-18 2.1-13.3 1.9-74.5 3.5-16.4.4-21.9.8-31.5 1.9-2.5.3-6.7.9-9.4 1.2-2.7.3-5.7.7-6.6.9-.9.2-4.1.6-7 1-2.9.4-6.1.8-7.1 1-.9.2-3.8.7-6.3 1l-4.6.7v10.7c-.1 5.8-.2 28.3-.4 49.8-.3 28.7-.1 39.3.8 39.4.6 0 1.8.2 2.6.4 1.6.4 3.4.8 28 5.3 9.1 1.7 17.9 3.3 19.5 3.6 1.7.3 6.8 1.3 11.5 2.1s9.9 1.8 11.5 2.1c1.7.4 3.9.7 5 .9 1.1.1 3.6.5 5.5.8 5.4 1 32.2 5.9 35 6.3 1.4.2 4.5.8 7 1.4 2.5.5 9.9 1.9 16.5 3.1 6.6 1.2 15.8 3 20.5 3.9 4.7.9 8.7 1.6 8.8 1.4.5-.3.5-145.4.1-145.8-.2-.1-2.4.1-4.8.6zm-482.2 226c-.3.7-.4 35.7-.4 77.8l.1 76.5 158.2.3 158.2.2v4.3c.1 2.3.1 73.8.1 158.9V1708h170.6l.1-155.8c0-85.6.1-156.4.1-157.3.1-1.2 1.5-1.5 7.4-1.4 8 .1 18.4-2.4 31.2-7.4 20-7.7 34-20.1 36.1-31.9.3-1.2-.4-4.2-1.5-6.6-6.5-14.7-32.6-26.9-77.1-36-8.3-1.7-34.3-6.1-40.5-7-2.2-.3-7.4-1-11.5-1.6-12.2-1.7-14.3-2-19-2.5-2.5-.3-6.1-.7-8-1-5.5-.8-10-1.3-16.5-2-3.3-.3-7.1-.8-8.5-1-1.4-.3-4.7-.7-7.5-1-2.7-.3-6.1-.8-7.5-1-1.4-.2-9.7-1.3-18.5-2.5-8.8-1.1-17.1-2.2-18.5-2.5-1.4-.2-4.5-.7-7-1-13.8-1.9-52.3-8.7-68-12-35.3-7.5-69.5-19.2-107.9-37.2l-9.3-4.3-67.3-.5c-53.7-.4-67.3-.3-67.6.7z"/><path d="M701 1473.3c-5.7 2.4-10.9 4.6-18.5 7.7-4.4 1.8-11.3 4.8-15.3 6.7-4.1 1.8-7.6 3.3-7.8 3.3-1.1 0-31.4 15.2-41.4 20.8-61.4 34.3-95.6 73.6-100.7 116-1.5 12.2-.2 34.2 1.9 34.2.6 0 .9-.3.6-.6-.9-.8 3.6-13.8 7.4-21.4 4.1-8.4 7.9-14 14.2-21.5 5.5-6.6 5.6-6.6 14.2-14.2 23.4-20.6 67.8-40.9 129.9-59.4 9.4-2.8 17.4-5.5 17.9-5.9.8-.8 1.3-65.6.5-66.4-.2-.2-1.5.1-2.9.7z"/></svg>