<svg version="1" xmlns="http://www.w3.org/2000/svg" width="260" height="260" viewBox="0 0 195.000000 195.000000"><path d="M87 2.1c-3.9 1-8.4 2.7-10 3.9-1.5 1.1-3.2 2-3.7 2C71.7 8 61.1 19.9 59 24c-2 3.9-5.5 15.9-6.6 22.6-.6 4.1 4 18.8 7.7 23.9 1.5 2.2 4.3 5.5 6.2 7.2 3.2 3.1 3.3 3.6 2.9 8.7-.3 4.2.1 6.5 1.7 9.9 2.4 4.9 7.7 10.6 11.8 12.8 1.6.8 3 1.7 3.3 2.1.5.6.5 9.8.1 11.8-.1.3-6.8.6-15.1.6-9.2 0-15.4.4-16 1-1.1 1.1-1.7 21.1-.6 22.1.3.3 5.5.6 11.6.6h11v2.9c0 3.8 3.3 10.1 6.6 12.7 2.5 1.9 2.8 2.9 2.9 8.9.2 4.8-.2 7.2-1.3 8.5-3.4 3.9-3.9 6-2.4 9.4 2 4.2 4.6 4.9 16.7 4.3l10-.5.3-4.2c.2-3 1.2-5.1 3.3-7.4 2.8-3 3.1-3.8 3.1-7.9 0-4.2-.3-5-3.2-8.3-2.8-3.2-3-4.1-3-10.9v-7.4l14.9-.1c8.2 0 15.6-.3 16.5-.6 2.5-1 2.4-20.8-.1-22.2-1-.6-6.4-1-12-1l-10.3.2v-4.2c0-4.4-4.6-13-7.5-14.1-1.2-.5-1.5-2.4-1.5-8.8v-8.1l6.8-3.3c7.6-3.6 15.6-10.8 19.6-17.5 3.4-6 6.3-17 6.1-23.8-.3-10.9-5.6-23-13.5-30.9-3.8-3.8-11-8-16.8-10C103.7.2 95.7-.1 87 2.1zm23.8 17.7c10 5.2 15.4 14 15.4 25.2 0 16.1-12.6 28.4-28.4 27.9-3.5-.1-9.3-.2-12.9-.2l-6.7-.1-.6-4.5c-.3-2.5-2.2-9.2-4.1-14.8-4-11.9-4.1-13.3-1.6-18.9 7-15.4 24.5-22 38.9-14.6z"/></svg>