<svg xmlns="http://www.w3.org/2000/svg" xmlns:xlink="http://www.w3.org/1999/xlink" width="21" height="21" viewBox="0 0 21 21">
    <defs>
        <path id="a" d="M20.282 0H0v20.282h20.282V0z"/>
    </defs>
    <g fill="none" fill-rule="evenodd">
        <mask id="b" fill="#fff">
            <use xlink:href="#a"/>
        </mask>
        <path fill="#FFF" d="M14.665 7.82c.005.1.007.202.007.303 0 3.085-2.347 6.64-6.642 6.64a6.602 6.602 0 0 1-3.577-1.048 4.685 4.685 0 0 0 3.456-.966 2.336 2.336 0 0 1-2.181-1.621 2.352 2.352 0 0 0 1.054-.04A2.335 2.335 0 0 1 4.91 8.8v-.03c.315.175.674.28 1.057.292a2.332 2.332 0 0 1-.722-3.116 6.628 6.628 0 0 0 4.81 2.439 2.334 2.334 0 0 1 3.977-2.13 4.659 4.659 0 0 0 1.484-.566 2.345 2.345 0 0 1-1.028 1.292 4.642 4.642 0 0 0 1.34-.368 4.696 4.696 0 0 1-1.163 1.207M10.141 0C4.55 0 0 4.55 0 10.141s4.55 10.141 10.141 10.141 10.141-4.55 10.141-10.14C20.282 4.548 15.733 0 10.142 0" mask="url(#b)"/>
    </g>
</svg>
