<svg xmlns="http://www.w3.org/2000/svg" xmlns:xlink="http://www.w3.org/1999/xlink" width="15" height="14" viewBox="0 0 15 14">
    <defs>
        <path id="a" d="M14.729 0H0v13.747h14.729V0z"/>
    </defs>
    <g fill="none" fill-rule="evenodd">
        <mask id="b" fill="#fff">
            <use xlink:href="#a"/>
        </mask>
        <path fill="#4C4C4C" d="M10.65 5.3c.003.068.005.137.005.206 0 2.09-1.705 4.5-4.823 4.5a5.046 5.046 0 0 1-2.599-.71c.133.015.268.022.405.022a3.56 3.56 0 0 0 2.105-.677c-.742-.013-1.368-.47-1.583-1.099a1.826 1.826 0 0 0 .765-.026c-.776-.145-1.36-.785-1.36-1.552v-.02c.23.119.49.19.768.198a1.556 1.556 0 0 1-.754-1.316c0-.29.084-.563.23-.796.835.957 2.085 1.587 3.493 1.653a1.478 1.478 0 0 1-.043-.36c0-.874.758-1.583 1.694-1.583.488 0 .928.193 1.238.5.386-.07.748-.202 1.076-.384-.127.37-.395.68-.746.875a3.56 3.56 0 0 0 .974-.248 3.294 3.294 0 0 1-.845.817M7.365 0C3.304 0 0 3.083 0 6.874c0 3.79 3.304 6.873 7.365 6.873 4.06 0 7.364-3.084 7.364-6.873C14.729 3.084 11.426 0 7.365 0" mask="url(#b)"/>
    </g>
</svg>
