<svg xmlns="http://www.w3.org/2000/svg" width="21" height="21" viewBox="0 0 21 21">
    <path fill="#FFF" fill-rule="evenodd" d="M16.992 15.521h-2.614V9.864c0-.662-.19-1.126-1.004-1.126-1.35 0-1.61 1.126-1.61 1.126v5.657H9.149v-9.15h2.615v.875a4.372 4.372 0 0 1 2.614-.873c.847 0 2.614.507 2.614 3.571v5.577zM6.616 5.811a1.225 1.225 0 1 1 0-2.45 1.225 1.225 0 0 1 0 2.45zm-1.388 9.71h2.614v-9.15H5.228v9.15zM10.457 0C4.682 0 0 4.682 0 10.457c0 5.774 4.682 10.456 10.457 10.456 5.774 0 10.456-4.682 10.456-10.456C20.913 4.68 16.231 0 10.457 0z"/>
</svg>
