<svg xmlns="http://www.w3.org/2000/svg" xmlns:xlink="http://www.w3.org/1999/xlink" width="47" height="56"><defs><path id="a" d="M46.455 55.34V.225H0V55.34z"/></defs><g fill="none" fill-rule="evenodd"><g transform="translate(0 .238)"><mask id="b" fill="#fff"><use xlink:href="#a"/></mask><path fill="#424242" d="M26.311 28.216a.487.487 0 0 0 .34-.131c.013-.01.026-.018.037-.028.01-.01.017-.022.025-.033a.488.488 0 0 0 .133-.343v-13.44a.543.543 0 0 0-.535-.534H14.616V7.399h30.65v40.806h-30.65V28.216h11.695zM1.07 27.146h24.708v-12.37H1.069v12.37zM14.616 6.212h30.65v-4.8h-30.65v4.8zm0 47.941h30.65v-4.758h-30.65v4.758zM45.861.224H14.022a.603.603 0 0 0-.594.594v12.889H.535A.542.542 0 0 0 0 14.24v13.44c0 .29.245.535.535.535h12.893v26.53c0 .322.272.595.594.595h31.839a.603.603 0 0 0 .594-.595V.82a.603.603 0 0 0-.594-.595z" mask="url(#b)"/></g><path fill="#424242" d="M22.34 39.12h15.68c.766 0 .766-1.189 0-1.189H22.34c-.765 0-.766 1.19 0 1.19m0-3.553h15.68c.766 0 .766-1.188 0-1.188H22.34c-.765 0-.766 1.188 0 1.188m11.204-16.186h5.896c.765 0 .766-1.19 0-1.19h-5.896c-.764 0-.766 1.19 0 1.19m0 2.411h5.896c.765 0 .766-1.188 0-1.188h-5.896c-.764 0-.766 1.188 0 1.188m0 3.313h5.896c.765 0 .766-1.188 0-1.188h-5.896c-.764 0-.766 1.188 0 1.188m4.476 16.281H22.34c-.765 0-.766 1.189 0 1.189h15.68c.766 0 .766-1.189 0-1.189M10.841 21.954l1.752 1.332c.186.14.495.07.648-.084l3.25-3.25c.488-.487-.269-1.244-.756-.756l-2.923 2.922-1.431-1.087c-.548-.416-1.082.512-.54.923"/></g></svg>