<svg xmlns="http://www.w3.org/2000/svg" width="62" height="57" viewBox="0 0 62 57"><g fill="#424242" fill-rule="evenodd"><path d="M42.365 5.984c3.204-9.814 21.029-3.971 18.212 5.927-3.518 9.675-21.415 3.883-18.212-5.927m8.477 11.834c4.39.634 9.031-1.2 10.675-5.513a.545.545 0 0 0 .05-.12.517.517 0 0 0 .03-.122c2.345-8.668-9.012-14.55-16.084-11.023-3.42 1.705-5.25 5.49-4.164 9.202 1.222 4.17 5.33 6.974 9.493 7.576"/><path d="M56.263 11.483c-1.287.75-2.814.573-4.187.176-.637-.184-.908.807-.273.991 1.64.475 3.453.609 4.979-.28.571-.332.054-1.22-.519-.887"/><path d="M49.067 11.326c.534.391 1.047-.5.519-.887-1.335-.978-3.081-2.632-2.935-4.492.165-2.102 2.535-2.375 4.178-2.09 2.64.456 7.73 3.534 6.13 6.905-.283.594.603 1.117.887.518 2.173-4.578-4.502-8.705-8.367-8.564-1.748.063-3.494.934-3.807 2.8-.408 2.428 1.618 4.508 3.395 5.81M8.811 19.867a18.38 18.38 0 0 0-3.548 7.289c-1.525-.198-2.884-1.144-3.564-2.488-.653-1.29-.6-2.76.142-4.038.689-1.182 1.797-1.924 3.122-2.09.182-.023.366-.035.549-.035 1.205 0 2.402.49 3.3 1.362m26.092 24.398a17 17 0 0 1-5.883 3.572c-7.629 2.709-16.313-.418-20.648-7.43-3.702-6.42-3.07-14.452 1.575-19.987 3.347-3.989 8.288-6.189 13.327-6.189a17.1 17.1 0 0 1 5.654.958c6.842 2.395 11.615 9.115 11.606 16.343-.005 4.633-1.947 9.17-5.328 12.45a.691.691 0 0 0-.303.283M19.246 9.917c.77-.978 1.9-1.54 3.185-1.582a4.155 4.155 0 0 1 3.289 1.384c.881.98 1.294 2.304 1.142 3.65a18.93 18.93 0 0 0-8.507.307c-.242-1.34.087-2.737.89-3.76m-8.9 34.877a4.623 4.623 0 0 1-3.644.853 4.164 4.164 0 0 1-2.864-2.029c-.603-1.043-.754-2.236-.424-3.36.342-1.163 1.177-2.175 2.3-2.793.407 1.24.943 2.439 1.594 3.569a19.258 19.258 0 0 0 3.038 3.76m8.597 4.744a18.197 18.197 0 0 0 8.244.107c.361 1.435.059 2.95-.821 4.072-.83 1.06-2.049 1.619-3.44 1.584-1.362-.038-2.537-.648-3.307-1.719-.818-1.135-1.068-2.639-.676-4.044M40.847 37.27c1.215.552 2.159 1.611 2.538 2.855.37 1.211.185 2.472-.52 3.55-.683 1.045-1.723 1.718-2.926 1.893-1.253.183-2.552-.184-3.578-1.008a18.812 18.812 0 0 0 4.486-7.29M36.498 18.6a4.595 4.595 0 0 1 3.6-.697c1.218.278 2.222 1.05 2.827 2.171a4.147 4.147 0 0 1 .294 3.294 4.659 4.659 0 0 1-2.316 2.678 18.914 18.914 0 0 0-4.405-7.446m8.043 21.106c-.522-1.63-1.739-2.946-3.349-3.628.158-.613.281-1.218.369-1.801.35-2.336.24-4.702-.324-7.034 1.484-.697 2.624-1.954 3.135-3.464a5.378 5.378 0 0 0-.376-4.321c-.77-1.428-2.052-2.404-3.608-2.748-1.639-.365-3.376.01-4.784 1.023a18.05 18.05 0 0 0-7.538-4.09c.225-1.75-.294-3.477-1.43-4.752-1.074-1.205-2.569-1.842-4.212-1.793-1.677.049-3.158.795-4.17 2.1-1.052 1.36-1.445 3.118-1.086 4.84a18.374 18.374 0 0 0-6.226 3.598 17.65 17.65 0 0 0-1.323 1.296 5.888 5.888 0 0 0-5.053-1.563c-1.765.304-3.226 1.416-4.008 3.051-.779 1.628-.741 3.381.107 4.937.88 1.615 2.503 2.732 4.357 3.007a19.216 19.216 0 0 0 .343 7.905.66.66 0 0 0-.137.052 5.91 5.91 0 0 0-3.054 3.832 5.414 5.414 0 0 0 .845 4.47 5.41 5.41 0 0 0 3.67 2.269c1.595.232 3.265-.23 4.586-1.266a18.798 18.798 0 0 0 6.47 3.572 5.877 5.877 0 0 0 .843 5.062 5.415 5.415 0 0 0 4.453 2.276c1.72 0 3.296-.769 4.34-2.122a5.892 5.892 0 0 0 1.012-5.081 18.6 18.6 0 0 0 7.068-3.92 5.888 5.888 0 0 0 4.638 1.367 5.371 5.371 0 0 0 3.828-2.473c.896-1.404 1.113-3.038.614-4.601"/><path d="M28.715 42.35a5.002 5.002 0 0 1-3.775-.818 5.04 5.04 0 0 1-2.102-3.247c-.499-2.704 1.264-5.242 4.086-5.902 2.71-.305 5.088 1.184 5.77 3.627a5.043 5.043 0 0 1-.591 4.017 5.103 5.103 0 0 1-3.388 2.323m-1.92-11.192l-.003.003a.68.68 0 0 0-.141.017c-3.45.785-5.666 4.016-5.044 7.354.555 2.983 3.284 5.151 6.236 5.151.349 0 .7-.03 1.052-.093 3.375-.601 5.678-3.844 5.134-7.229-.543-3.373-3.723-5.66-7.234-5.203m-4.485-4.087a3.22 3.22 0 0 1-2.144 1.491c-2.03.38-3.251-.902-3.561-2.343-.34-1.577.39-3.435 2.426-3.931.14-.014.277-.02.413-.02 1.537 0 2.8.871 3.21 2.26a3.163 3.163 0 0 1-.344 2.543m1.651-2.324c-.372-2.37-2.592-3.99-5.059-3.683a.67.67 0 0 0-.143.018c-2.426.568-3.974 2.843-3.525 5.178.406 2.11 2.284 3.602 4.369 3.602.245 0 .493-.02.741-.063 2.369-.406 3.991-2.672 3.617-5.052m-6.808 12.345a3.219 3.219 0 0 1-2.144 1.49c-2.03.381-3.25-.901-3.56-2.342-.34-1.578.39-3.436 2.425-3.931a4.16 4.16 0 0 1 .414-.021c1.536 0 2.799.873 3.21 2.26a3.164 3.164 0 0 1-.345 2.544m-3.405-6.01l.015.12-.017-.117a.696.696 0 0 0-.143.018c-2.426.568-3.975 2.842-3.525 5.177.406 2.11 2.284 3.603 4.369 3.603.245 0 .492-.021.74-.063 2.37-.407 3.992-2.673 3.618-5.052-.373-2.37-2.595-3.986-5.057-3.685"/></g></svg>