<svg xmlns="http://www.w3.org/2000/svg" xmlns:xlink="http://www.w3.org/1999/xlink" width="59" height="50" viewBox="0 0 59 50"><defs><path id="a" d="M29.335 49.538H0V.011h58.67v49.527z"/></defs><g fill="none" fill-rule="evenodd"><path fill="#EE9BBE" d="M39.519 9.718H19.15V6.003a4.043 4.043 0 0 1 4.039-4.039h12.29a4.043 4.043 0 0 1 4.039 4.039v3.715zm12.902 0H41.255V6.003A5.781 5.781 0 0 0 35.48.228H23.19a5.781 5.781 0 0 0-5.775 5.775v3.715H6.25a6.142 6.142 0 0 0-6.135 6.134v27.54a6.142 6.142 0 0 0 6.135 6.136h8.505a.868.868 0 0 0 0-1.736H6.249a4.404 4.404 0 0 1-4.399-4.4v-27.54a4.404 4.404 0 0 1 4.399-4.398H52.42a4.404 4.404 0 0 1 4.399 4.398v27.54a4.404 4.404 0 0 1-4.4 4.4H17.648a.868.868 0 0 0 0 1.736H52.42a6.142 6.142 0 0 0 6.135-6.135v-27.54a6.142 6.142 0 0 0-6.135-6.135z"/><g transform="translate(0 .103)"><mask id="b" fill="#fff"><use xlink:href="#a"/></mask><path fill="#EE9BBE" d="M19.265 9.5h20.14V5.9a3.93 3.93 0 0 0-3.925-3.925H23.19A3.93 3.93 0 0 0 19.265 5.9v3.6zm20.368.229H19.037v-3.83a4.158 4.158 0 0 1 4.153-4.152h12.29A4.158 4.158 0 0 1 39.633 5.9v3.829zM17.647 47.802a.755.755 0 0 0 0 1.508H52.42c3.32 0 6.02-2.7 6.02-6.02V15.75c0-3.32-2.7-6.021-6.02-6.021H41.14v-3.83c0-3.12-2.54-5.66-5.661-5.66H23.19a5.667 5.667 0 0 0-5.66 5.66v3.83H6.248c-3.32 0-6.02 2.7-6.02 6.02v27.54c0 3.32 2.7 6.021 6.02 6.021h8.505a.755.755 0 0 0 0-1.508H6.249a4.518 4.518 0 0 1-4.513-4.512V15.75a4.518 4.518 0 0 1 4.513-4.514H52.42a4.518 4.518 0 0 1 4.513 4.513v27.54a4.518 4.518 0 0 1-4.513 4.513H17.647zm34.774 1.736H17.647a.983.983 0 0 1 0-1.964H52.42a4.29 4.29 0 0 0 4.285-4.284V15.75a4.29 4.29 0 0 0-4.285-4.286H6.249a4.29 4.29 0 0 0-4.285 4.285v27.54a4.29 4.29 0 0 0 4.285 4.285h8.505a.983.983 0 0 1 0 1.964H6.249A6.256 6.256 0 0 1 0 43.29V15.75A6.256 6.256 0 0 1 6.249 9.5H17.3V5.9A5.896 5.896 0 0 1 23.19.01h12.29a5.896 5.896 0 0 1 5.889 5.89v3.6H52.42a6.256 6.256 0 0 1 6.249 6.25v27.54a6.256 6.256 0 0 1-6.249 6.248z" mask="url(#b)"/></g><path fill="#EE9BBE" d="M41.72 23.463a.868.868 0 0 0-1.554.774 11.97 11.97 0 0 1 1.262 5.386c0 6.668-5.425 12.093-12.093 12.093-6.669 0-12.094-5.425-12.094-12.093 0-6.669 5.425-12.094 12.094-12.094 3.564 0 6.93 1.562 9.234 4.285a.868.868 0 0 0 1.325-1.122 13.811 13.811 0 0 0-10.56-4.899c-7.625 0-13.828 6.204-13.828 13.83 0 7.625 6.203 13.829 13.829 13.829 7.625 0 13.829-6.204 13.829-13.83a13.69 13.69 0 0 0-1.444-6.159"/><path fill="#EE9BBE" d="M29.335 15.908c-7.563 0-13.715 6.152-13.715 13.715 0 7.562 6.152 13.715 13.715 13.715 7.562 0 13.715-6.153 13.715-13.715 0-2.146-.482-4.201-1.432-6.109a.755.755 0 0 0-1.35.673 12.084 12.084 0 0 1 1.274 5.436c0 6.73-5.476 12.207-12.207 12.207-6.732 0-12.208-5.476-12.208-12.207 0-6.732 5.477-12.208 12.208-12.208 3.597 0 6.995 1.577 9.322 4.325a.753.753 0 1 0 1.15-.974 13.697 13.697 0 0 0-10.472-4.858m0 27.658c-7.688 0-13.943-6.255-13.943-13.943 0-7.689 6.255-13.944 13.943-13.944 4.109 0 7.99 1.8 10.647 4.94.169.2.25.454.229.715a.975.975 0 0 1-.344.669.974.974 0 0 1-.716.229.976.976 0 0 1-.669-.344 11.964 11.964 0 0 0-9.147-4.244c-6.605 0-11.98 5.373-11.98 11.979 0 6.605 5.374 11.979 11.98 11.979 6.605 0 11.979-5.374 11.979-11.98 0-1.874-.42-3.669-1.25-5.334a.983.983 0 0 1 1.758-.876 13.804 13.804 0 0 1 1.456 6.21c0 7.69-6.255 13.944-13.943 13.944"/><path fill="#EE9BBE" d="M35.642 31.474h-3.588a.868.868 0 0 0-.868.868v3.588h-3.703v-3.588a.868.868 0 0 0-.868-.868h-3.587v-3.703h3.587c.48 0 .868-.389.868-.868v-3.587h3.703v3.587c0 .48.39.868.868.868h3.588v3.703zm.868-5.439h-3.588v-3.587a.868.868 0 0 0-.868-.868h-5.439a.868.868 0 0 0-.868.868v3.587H22.16a.868.868 0 0 0-.868.868v5.44c0 .479.389.867.868.867h3.587v3.588c0 .479.389.868.868.868h5.44a.868.868 0 0 0 .867-.868V33.21h3.588c.48 0 .868-.388.868-.868v-5.439a.868.868 0 0 0-.868-.868z"/><path fill="#EE9BBE" d="M27.597 35.816h3.475v-3.474c0-.541.44-.982.982-.982h3.474v-3.475h-3.474a.983.983 0 0 1-.982-.982V23.43h-3.475v3.473c0 .542-.44.982-.982.982h-3.473v3.475h3.473c.542 0 .982.44.982.982v3.474zm3.704.228h-3.932v-3.702a.755.755 0 0 0-.754-.754h-3.701v-3.931h3.701a.754.754 0 0 0 .754-.754v-3.702h3.932v3.702c0 .416.338.754.753.754h3.702v3.931h-3.702a.755.755 0 0 0-.753.754v3.702zm-9.141-9.895a.755.755 0 0 0-.754.754v5.44c0 .415.338.753.754.753h3.701v3.702c0 .415.339.754.754.754h5.44a.755.755 0 0 0 .753-.754v-3.702h3.702a.755.755 0 0 0 .754-.754v-5.439a.755.755 0 0 0-.754-.754h-3.702v-3.701a.755.755 0 0 0-.754-.754h-5.439a.755.755 0 0 0-.754.754v3.701H22.16zm9.894 11.63h-5.439a.983.983 0 0 1-.982-.981v-3.474H22.16a.983.983 0 0 1-.982-.982v-5.439c0-.541.44-.982.982-.982h3.473v-3.473c0-.542.44-.982.982-.982h5.44c.54 0 .981.44.981.982v3.473h3.474c.541 0 .982.44.982.982v5.44c0 .54-.44.981-.982.981h-3.474v3.474c0 .541-.44.982-.982.982z"/></g></svg>