<svg xmlns="http://www.w3.org/2000/svg" width="59" height="43"><g fill="#EE9BBE"><path d="M29.807 29.696c-4.45 0-8.123-3.72-8.123-8.229 0-4.509 3.672-8.229 8.123-8.229 4.45 0 8.123 3.72 8.123 8.229 0 4.509-3.673 8.23-8.123 8.23zm0-14.311c-3.32 0-6.004 2.72-6.004 6.082 0 3.363 2.685 6.082 6.004 6.082 3.32 0 6.004-2.72 6.004-6.082 0-3.363-2.685-6.082-6.004-6.082z"/><path d="M32.985 22.398c-.565 0-1.06-.5-1.06-1.073a2.139 2.139 0 0 0-2.118-2.147c-.635 0-1.131.215-1.554.716-.424.43-1.059.5-1.484.072-.425-.43-.494-1.073-.072-1.504.778-.858 1.979-1.43 3.107-1.43 2.332 0 4.238 1.93 4.238 4.293a1.043 1.043 0 0 1-1.057 1.073zm6.923 10.376c-.281 0-.565-.073-.778-.285a1.046 1.046 0 0 1 0-1.504c5.157-5.224 5.157-13.738 0-18.963a1.046 1.046 0 0 1 0-1.504c.425-.43 1.06-.43 1.485 0 6.003 6.083 6.003 15.958 0 22.04-.141.143-.425.216-.707.216z"/><path d="M44.78 37.783c-.28 0-.565-.073-.778-.285a1.046 1.046 0 0 1 0-1.504c7.842-7.944 7.842-20.894 0-28.908a1.046 1.046 0 0 1 0-1.504c.425-.43 1.06-.43 1.485 0 8.76 8.73 8.76 23.041.072 31.843-.213.215-.494.358-.778.358z"/><path d="M49.725 42.792c-.281 0-.566-.073-.778-.285a1.046 1.046 0 0 1 0-1.504c10.595-10.734 10.595-28.192 0-38.926a1.046 1.046 0 0 1 0-1.504c.425-.43 1.06-.43 1.484 0 11.442 11.592 11.442 30.412 0 41.934a1.07 1.07 0 0 1-.706.285zM19.424 32.774c-.281 0-.565-.073-.778-.285-6.004-6.083-6.004-15.958 0-22.04a1.014 1.014 0 0 1 1.485 0c.425.43.425 1.073 0 1.503-5.157 5.224-5.157 13.738 0 18.963.425.43.425 1.073 0 1.504-.141.282-.425.355-.707.355z"/><path d="M14.552 37.783c-.281 0-.566-.073-.778-.285-8.689-8.875-8.689-23.186 0-31.988.425-.43 1.06-.43 1.484 0 .425.43.425 1.073 0 1.503-7.841 7.945-7.841 20.894 0 28.908.425.43.425 1.073 0 1.504a.869.869 0 0 1-.706.358z"/><path d="M9.608 42.792c-.282 0-.566-.073-.778-.285C-2.612 30.915-2.612 12.095 8.83.573c.424-.43 1.06-.43 1.484 0 .425.43.425 1.073 0 1.504-10.595 10.733-10.595 28.192 0 38.925.425.43.425 1.074 0 1.504a1.081 1.081 0 0 1-.706.285z"/></g></svg>