<svg xmlns="http://www.w3.org/2000/svg" width="33" height="27"><g fill="#EE9BBE"><path d="M29.758 8.387a19.04 19.04 0 0 0-1.638.341l.712.543c-.125-1.683-.468-3.347-.888-4.979A45.68 45.68 0 0 0 26.857.687v.3l-.3.295c-.107.01-.133.014-.078.014l.018.001c-.184-.024-.177-.024.016.003l.063.001.429.01a60.541 60.541 0 0 0 .605.007c.16.004-.102-.026.022.006.114.03-.113-.06-.031-.01-.084-.07-.108-.087-.07-.053-.072-.099-.095-.127-.068-.086.002.003.003.004.003.007a3.854 3.854 0 0 0 .002.005l.031.07c.041.094-.056-.136-.016-.038l.03.074a11.526 11.526 0 0 1 .385 1.134c.366 1.225.646 2.477.907 3.728.203.971.393 1.945.561 2.923.051.302.419.467.691.393.318-.088.445-.39.393-.691a69.418 69.418 0 0 0-1.155-5.51 24.962 24.962 0 0 0-.496-1.717 10.58 10.58 0 0 0-.253-.682c-.005-.012-.163-.415-.051-.118a.7.7 0 0 0-.16-.275c-.157-.185-.4-.244-.629-.275-.325-.043-.67-.017-1-.023l-.148-.004c-.013 0-.025 0-.038-.002h-.005c.193.026.192.026-.006 0a.71.71 0 0 0-.67.345c-.188.31.004.663.106.967.36 1.083.68 2.18.96 3.285.192.753.362 1.512.503 2.275.07.382.134.765.186 1.149.023.166-.015-.117.007.049l.018.148a20.731 20.731 0 0 1 .086.877c.027.369.338.633.712.542.54-.13 1.086-.258 1.638-.342.303-.046.466-.422.393-.69-.088-.32-.388-.438-.69-.393z"/><path d="M29.825 21.655c-.005.007-.11.146-.039.054l-.097.12a5.161 5.161 0 0 1-.752.735c-.118.095.093-.068-.027.02a5.301 5.301 0 0 1-1.077.623c-.118.052.12-.049.003-.001l-.096.039a5.427 5.427 0 0 1-1.124.298c-.119.018.174-.022.04-.006l-.084.01c-.166.015-.334-.007-.501-.019a20.135 20.135 0 0 1-1.246-.125 5.858 5.858 0 0 1-.136-.021l-.268-.042a17.599 17.599 0 0 1-.557-.104 12.852 12.852 0 0 1-1.889-.535 8.725 8.725 0 0 1-.483-.195c-.072-.032-.142-.066-.214-.1a8.919 8.919 0 0 1-.71-.376 8.034 8.034 0 0 1-.764-.51c-.03-.024-.117-.092.025.018-.022-.016-.044-.034-.066-.052a6.96 6.96 0 0 1-1.15-1.158c.129.165.016.02-.014-.02l-.083-.116a6.556 6.556 0 0 1-.45-.734 6.824 6.824 0 0 1-.23-.479c-.05-.115.06.148.001.002l-.045-.114a7.041 7.041 0 0 1-.4-1.54l-.007-.045.012.088-.012-.092a6.412 6.412 0 0 1-.035-1.23c.005-.078.04-.334-.004-.022v-.002l-.028.097c.039-.05.039-.05-.001.001a13.907 13.907 0 0 1 .577-.689c.262-.291.538-.569.825-.836.285-.266.582-.519.886-.76.036-.03.073-.058.11-.087.121-.096-.09.07.033-.025a16.162 16.162 0 0 1 .714-.515 19.763 19.763 0 0 1 1.948-1.168 23.363 23.363 0 0 1 1.453-.702l.232-.101.116-.05c-.143.06.03-.013.058-.025a27.553 27.553 0 0 1 1.843-.687c1.28-.428 2.607-.803 3.942-1.006l-.692-.393c.614 1.715 1.133 3.471 1.447 5.267.03.178.059.356.086.535l.02.13.003.024a17.501 17.501 0 0 1 .123 1.303A13.208 13.208 0 0 1 31 18.4a6.397 6.397 0 0 1-.018.155l-.008.062c-.015.117.02-.143.004-.028-.027.195-.061.39-.1.582-.07.343-.163.68-.277 1.01l-.078.21c-.014.039-.03.076-.045.115-.052.13.057-.13 0-.002a6.283 6.283 0 0 1-.2.42 5.714 5.714 0 0 1-.452.731c-.18.248-.043.626.202.77.283.167.59.046.77-.202 1.132-1.56 1.437-3.584 1.388-5.469-.072-2.726-.822-5.423-1.735-7.974-.113-.315-.37-.442-.69-.393-1.06.16-2.106.44-3.13.749a28.266 28.266 0 0 0-3.76 1.428 20.366 20.366 0 0 0-3.946 2.391 14.357 14.357 0 0 0-1.726 1.58c-.29.314-.558.644-.818.982-.104.136-.118.225-.137.385-.093.783.01 1.611.191 2.372a7.34 7.34 0 0 0 2.472 3.953c2.06 1.69 4.77 2.278 7.372 2.437.562.035 1.142-.113 1.667-.302a6.064 6.064 0 0 0 2.852-2.14c.183-.247.041-.627-.201-.77-.287-.165-.59-.043-.771.204zM5.495.687c-.252.703-.47 1.417-.681 2.133-.446 1.52-.826 3.064-1.075 4.629a21.71 21.71 0 0 0-.219 1.82l.712-.542a19.203 19.203 0 0 0-1.638-.342l.393.692c.316-1.848.69-3.693 1.155-5.51.188-.732.388-1.465.658-2.172a5.026 5.026 0 0 1 .074-.187c.054-.125.13-.253.016-.034-.031.06-.071.089-.14.139.05-.035-.143.04.005.001-.143.038.027.002.073.002l.185-.002c.21-.002.421-.006.632-.01l.176-.004c.058-.001.087-.008.166-.02-.14.015-.179.021-.116.016h.022c-.181-.005-.315-.108-.4-.31a.57.57 0 0 0 .692.394.57.57 0 0 0 .393-.691c-.085-.33-.364-.494-.685-.516l-.051.003-.15.02c.146-.014.192-.02.138-.019a4.2 4.2 0 0 1-.126.003c-.321.006-.642.008-.963.015a1.076 1.076 0 0 0-.689.25.714.714 0 0 0-.134.165c-.021.036-.099.244-.061.144.085-.222.037-.09.015-.04-.109.257-.21.517-.3.781-.403 1.178-.683 2.4-.95 3.616a79.167 79.167 0 0 0-.72 3.671c-.047.273.069.643.393.691.55.084 1.097.21 1.638.342.373.091.684-.173.711-.542.014-.194.032-.388.053-.582.01-.099.022-.196.033-.295l.02-.148c.009-.067.009-.066 0 .001l.014-.099c.058-.417.13-.834.208-1.247.153-.806.34-1.605.545-2.399A45.373 45.373 0 0 1 6.579.99C6.682.701 6.465.375 6.186.3c-.31-.09-.587.1-.691.387z"/><path d="M12.405 21.622a8.83 8.83 0 0 1-2.288 1.17 13.084 13.084 0 0 1-.899.271c-.054.014-.11.026-.163.043a.551.551 0 0 0-.239.075c.12-.059-.04-.012-.055-.009l-.158.036a14.926 14.926 0 0 1-1.177.206l-.185.023a22.917 22.917 0 0 1-1.124.1 2.132 2.132 0 0 1-.385.003l-.083-.01c.239.03.086.011.03.002a5.764 5.764 0 0 1-1.167-.328c-.116-.047.122.053.004.002-.034-.014-.067-.03-.1-.045a5.64 5.64 0 0 1-.87-.5l-.107-.077c-.12-.089.091.073-.027-.02a5.35 5.35 0 0 1-.849-.855c.072.09-.035-.047-.039-.054l-.047-.067a5.879 5.879 0 0 1-.547-.953l-.058-.13.02.047c-.01-.022-.019-.045-.03-.067a8.103 8.103 0 0 1-.45-1.626c-.01-.06-.02-.119-.028-.178-.005-.03-.01-.06-.013-.09l.004.028a11.497 11.497 0 0 1-.087-1.249c-.012-.638.025-1.278.093-1.912l.03-.252.015-.127.003-.022a21.243 21.243 0 0 1 .313-1.741c.192-.88.43-1.748.698-2.608.17-.546.353-1.088.546-1.626l-.691.393c1.058.16 2.105.44 3.13.749a28.817 28.817 0 0 1 2.693.96c.025.011.156.066.02.008l.115.05c.078.034.156.067.233.102.17.075.339.153.507.231a20.235 20.235 0 0 1 3.495 2.07l.074.056a13.625 13.625 0 0 1 .433.347 14.362 14.362 0 0 1 1.458 1.393 14.392 14.392 0 0 1 .49.577c.03.037.059.074.087.112l-.03-.04c.044.067.044.048.002-.057.313-.182.627-.364.939-.547l-.001-.001a.565.565 0 0 0-.681-.087c-.24.14-.294.38-.258.634-.042-.295-.013-.094-.007-.02a6.393 6.393 0 0 1-.02 1.164 6.924 6.924 0 0 1-.017.161l.005-.037-.017.115a7.038 7.038 0 0 1-.45 1.613c.06-.148.01-.024-.003.005-.016.035-.031.07-.048.104-.032.071-.067.14-.101.211a6.885 6.885 0 0 1-.532.879l-.077.105-.02.026a6.892 6.892 0 0 1-1.186 1.176c-.038.025-.08.056-.123.087-.246.18-.368.484-.201.77.144.243.52.38.77.2 1.272-.924 2.23-2.157 2.75-3.646.304-.87.447-1.822.408-2.743a4.519 4.519 0 0 0-.046-.474c-.313.182-.627.364-.939.547l.001.001c.418.41 1.054-.008.94-.547-.029-.135-.15-.258-.232-.362l-.176-.224a13.35 13.35 0 0 0-1.22-1.308 16.662 16.662 0 0 0-1.891-1.517c-1.216-.848-2.539-1.54-3.902-2.116a29.402 29.402 0 0 0-3.263-1.161c-.921-.268-1.862-.51-2.81-.654-.321-.05-.578.077-.691.393C1.29 10.495.77 12.25.458 14.047c-.23 1.317-.359 2.663-.262 4 .074 1.02.28 2.015.68 2.958a6.182 6.182 0 0 0 2.07 2.602c.788.571 1.73.918 2.69 1.045.38.05.767-.007 1.148-.043.445-.041.89-.1 1.332-.17.21-.033.419-.072.626-.114.217-.044.441-.08.642-.176l-.284.077c.179 0 .367-.066.54-.112a11.566 11.566 0 0 0 1.418-.483 9.497 9.497 0 0 0 1.915-1.04c.25-.178.368-.488.202-.77-.144-.244-.519-.378-.77-.2z"/><path d="M9.517 24.148c.142-.038.28-.076.42-.117l-.299-1.085c-.139.042-.28.081-.42.117a.568.568 0 0 0-.393.692.57.57 0 0 0 .692.393c.142-.038.282-.076.42-.117a.57.57 0 0 0 .394-.691.568.568 0 0 0-.692-.394c-.14.042-.28.081-.42.117a.568.568 0 0 0-.393.692c.081.298.395.47.691.393z"/><path d="M10.452 23.864a10.9 10.9 0 0 0 .342-.126l-.3-1.084c-.112.043-.227.086-.34.126a.586.586 0 0 0-.336.258.567.567 0 0 0-.057.433c.077.281.401.494.691.393a10.9 10.9 0 0 0 .342-.126c.143-.055.257-.122.335-.258a.563.563 0 0 0-.202-.768c-.119-.071-.299-.108-.432-.057a15.47 15.47 0 0 1-.342.126.592.592 0 0 0-.335.258.567.567 0 0 0-.057.433c.077.28.402.493.691.392z"/><path d="M11.059 23.632a10 10 0 0 0 1.721-.905l-.567-.972a8.97 8.97 0 0 1-1.096.629l-.214.1-.109.049a.49.49 0 0 0-.033.015c-.283.118-.482.367-.393.691.073.267.408.511.69.393a9.954 9.954 0 0 0 1.722-.905c.253-.171.364-.492.202-.77-.148-.252-.514-.373-.77-.202a8.97 8.97 0 0 1-1.095.629l-.214.1-.109.049a.49.49 0 0 0-.033.015c-.283.118-.482.367-.393.691.073.267.408.513.69.393z"/><path d="M12.782 22.727l.191-.134-.568-.971c-.063.046-.127.09-.191.134a.59.59 0 0 0-.258.335.564.564 0 0 0 .392.691.551.551 0 0 0 .434-.055l.191-.134.114-.087a.567.567 0 0 0 .087-.68.564.564 0 0 0-.335-.26c-.133-.037-.316-.026-.433.057l-.191.134a.59.59 0 0 0-.258.335.564.564 0 0 0 .825.635z"/><path d="M12.973 22.592c1.273-.925 2.23-2.159 2.75-3.648.305-.87.448-1.821.41-2.743a4.519 4.519 0 0 0-.047-.474l-.94.548.002.001c-.049-.082-.096-.166-.144-.248-.041-.308-.01-.064-.004.009.01.122.014.245.016.367a7.615 7.615 0 0 1-.05.9 7.509 7.509 0 0 1-.342 1.395c-.025.07-.05.137-.077.205l-.043.105c-.037.09.048-.108-.018.04a6.78 6.78 0 0 1-.768 1.305c-.089.12.072-.092-.02.025l-.085.104a7.461 7.461 0 0 1-.95.942c-.015.013-.176.139-.087.072a8.127 8.127 0 0 1-.168.125c-.248.18-.369.484-.202.77.141.243.519.38.767.2 1.277-.928 2.237-2.168 2.756-3.662a7.445 7.445 0 0 0 .403-2.741c-.01-.238-.014-.537-.191-.71a.565.565 0 0 0-.681-.088c-.24.14-.294.38-.258.634-.042-.295-.013-.093-.007-.02a6.393 6.393 0 0 1-.02 1.164c-.004.054-.01.108-.017.162l.005-.038-.017.115a7.038 7.038 0 0 1-.45 1.613c.06-.147.01-.024-.003.005l-.048.105c-.032.07-.067.14-.101.21a6.885 6.885 0 0 1-.532.879l-.077.105-.02.026a6.892 6.892 0 0 1-1.186 1.176c-.04.032-.083.062-.125.093-.247.18-.369.485-.202.77.145.245.523.383.771.202z"/><path d="M29.768 21.789c-.366 1.413-.868 2.8-1.364 4.171l.393-.393a5.372 5.372 0 0 1-.198.039c-.043.008-.28.041-.091.017-.157.02-.315.034-.473.046-.329.022-.658.023-.986.014a16.284 16.284 0 0 1-1.587-.128l-.132-.017c-.15-.02.123.017-.027-.004-.104-.014-.207-.03-.311-.045a30.766 30.766 0 0 1-4.107-.928c-1.274-.377-2.484-.92-3.765-1.274-.354-.098-.785-.267-1.154-.185-.59.131-1.17.302-1.744.49-.638.21-1.254.479-1.888.696-.548.187-1.104.35-1.663.5-.685.183-1.376.345-2.07.484-.367.073-.736.139-1.104.198l-.266.04-.133.02c-.024.004-.176.025-.027.004-.19.026-.38.048-.571.068-.544.058-1.09.091-1.637.087a9.15 9.15 0 0 1-.908-.051c-.024-.003-.048-.005-.071-.009-.127-.015.136.02.01.001a5.865 5.865 0 0 1-.334-.06l.393.393c-.497-1.372-.998-2.758-1.364-4.172-.343.144-.685.29-1.028.433.86 1.167 2.084 2.005 3.501 2.332.265.06.54.11.81.122.223.01.458-.027.68-.045a18.971 18.971 0 0 0 2.3-.326c.185-.037.366-.073.536-.154l-.284.077c.179 0 .367-.068.54-.113a10.383 10.383 0 0 0 .453-.133c.063-.019.186-.019-.005-.019.27 0 .45-.176.542-.412l.001-.004-.393.393c1.803-.605 3.432-1.6 4.555-3.162.82-1.142 1.254-2.538 1.333-3.935a5.661 5.661 0 0 0-.04-1.114l-.939.548c.264.258.679.322 1.028.327.355.005.76-.078 1.029-.327l-.94-.548c-.1.722-.041 1.46.09 2.174a7.348 7.348 0 0 0 2.106 3.931c1.797 1.741 4.304 2.458 6.729 2.738.36.042.724.072 1.088.094.105.006.203.014.307.004.35-.034.695-.1 1.031-.198 1.29-.374 2.389-1.172 3.183-2.248.182-.247.04-.627-.202-.77-.285-.167-.587-.045-.77.202-.005.006-.11.145-.038.054-.032.04-.064.08-.098.12a5.161 5.161 0 0 1-.752.735c-.118.094.093-.069-.026.02a5.3 5.3 0 0 1-1.077.623c-.118.051.12-.05.003-.002l-.097.039a5.427 5.427 0 0 1-1.124.298c-.118.018.175-.022.041-.005l-.084.009c-.166.015-.335-.007-.502-.018a20.135 20.135 0 0 1-1.246-.126 5.86 5.86 0 0 1-.136-.02c-.089-.013-.178-.029-.267-.043-.186-.03-.373-.067-.558-.104a12.852 12.852 0 0 1-1.888-.534 8.725 8.725 0 0 1-.483-.196 8.918 8.918 0 0 1-.924-.475 8.034 8.034 0 0 1-.764-.511l.024.019-.065-.053a6.96 6.96 0 0 1-1.15-1.158c.128.165.015.02-.014-.02a6.556 6.556 0 0 1-.533-.85 6.826 6.826 0 0 1-.23-.478c-.05-.116.06.147 0 .001l-.044-.113a7.041 7.041 0 0 1-.4-1.54c-.004-.015-.005-.03-.007-.045-.012-.083.023.17.011.087l-.011-.091a6.667 6.667 0 0 1-.028-1.31c.006-.073.029-.224-.011.056.036-.255-.02-.495-.258-.635a.571.571 0 0 0-.681.088c-.052.047.141-.105.077-.06-.039.025-.158.072.015.002a1.102 1.102 0 0 1-.16.049c-.056.006-.11.006-.167.007-.038 0-.076-.001-.113-.004-.167-.007.105.022-.039-.003a.992.992 0 0 1-.17-.048c.169.062.057.024.013-.003-.083-.051.116.1.075.06a.565.565 0 0 0-.681-.088c-.239.14-.294.38-.258.635-.044-.311-.01-.05-.003.026.012.152.014.305.014.458a7.17 7.17 0 0 1-.038.685c-.005.046-.034.271-.008.076-.009.068-.02.135-.03.201a7.26 7.26 0 0 1-.395 1.437l-.049.12c.054-.13-.004.008-.013.029a6.593 6.593 0 0 1-.748 1.274c-.1.136.069-.085-.038.049l-.099.122a7.74 7.74 0 0 1-.94.928c-.043.036-.088.07-.131.105a.726.726 0 0 0-.024.017l-.093.069a8.652 8.652 0 0 1-1.396.813c-.053.026-.107.05-.161.075 0 0-.17.064-.09.04-.108.033-.214.087-.32.127-.118.045-.238.087-.357.13-.09.032-.194.057-.277.105-.137.08-.203.195-.26.34l.543-.413c-.206 0-.432.102-.628.158-.1.028-.2.056-.303.078-.039.01-.077.023-.116.035.06-.004.078-.007.058-.007a.551.551 0 0 0-.284.077c.105-.05 0-.02-.028-.014l-.133.034c-.108.024-.216.045-.323.066a18.334 18.334 0 0 1-.845.143l-.183.023-.352.04a19.78 19.78 0 0 1-.731.062c-.156.01-.309.027-.463.013a1.573 1.573 0 0 1-.04-.004 5.481 5.481 0 0 1-1.236-.346c.152.062.034.014.003 0a5.723 5.723 0 0 1-.867-.482 4.923 4.923 0 0 1-.212-.153c.11.083-.01-.009-.027-.023a5.322 5.322 0 0 1-.814-.827c.071.09-.035-.048-.04-.054-.15-.206-.372-.33-.634-.258a.57.57 0 0 0-.393.691c.319 1.23.749 2.432 1.172 3.628.055.158.112.315.168.473l.026.07c.115.318.362.393.658.441.671.11 1.351.127 2.03.095 1.5-.07 2.995-.342 4.455-.686 1.09-.257 2.193-.548 3.235-.966.997-.4 2.027-.753 3.08-.975h-.299c.442.092.878.217 1.31.347.723.218 1.416.505 2.125.762 1.158.417 2.36.727 3.56.985 1.45.312 2.945.552 4.433.547a8.667 8.667 0 0 0 1.477-.128c.267-.048.461-.16.56-.432.121-.338.24-.677.359-1.016.36-1.04.727-2.083 1.003-3.149a.568.568 0 0 0-.393-.691.567.567 0 0 0-.691.392z"/></g></svg>