<svg xmlns="http://www.w3.org/2000/svg" width="18" height="28" viewBox="0 0 18 28"><path d="M.205 23.632l3.98 3.857 4.611-5.765-3.465-4.036zm12.815-6.636c.8-.923 2.984-3.45 3.572-4.17.725-.887 1.11-1.275.814-2.797-.238-1.226-.433-2.221-1.076-4.9l-6.736 7.89 3.426 3.977zM9.212 5.436c2.023 0 3.814.553 4.93 1.402l2.038-2.372C15.6 2.203 13.078.029 9.145.054c-3.735.023-6.34 2.24-7.003 4.312l2.133 2.476c1.117-.85 2.909-1.406 4.936-1.406zm-7.254-.543c-.612 2.719-.885 3.674-1.123 4.9-.295 1.522.134 1.91.86 2.797.589.72 11.874 13.842 12.672 14.765l3.608-3.683L1.958 4.893z" fill="#EE9BBE"/></svg>