<svg xmlns="http://www.w3.org/2000/svg" width="29" height="28"><g fill="#EE9BBE"><path d="M25.708 7.888h-.269V5.054A4.881 4.881 0 0 0 20.563.18H8.665a4.881 4.881 0 0 0-4.876 4.875v2.834h-.212A3.235 3.235 0 0 0 .345 11.12v13.326a3.235 3.235 0 0 0 3.232 3.232H25.71a3.235 3.235 0 0 0 3.232-3.232V11.12a3.235 3.235 0 0 0-3.232-3.232zM4.618 5.054a4.05 4.05 0 0 1 4.045-4.047H20.56a4.052 4.052 0 0 1 4.047 4.047v2.834H22.15V5.054a1.59 1.59 0 0 0-1.589-1.589H8.664a1.59 1.59 0 0 0-1.589 1.59v2.833H4.617l.001-2.834zM21.32 7.888H7.906V5.054a.76.76 0 0 1 .759-.759h11.897a.76.76 0 0 1 .759.76v2.833zm6.79 16.558a2.405 2.405 0 0 1-2.403 2.402H3.577a2.405 2.405 0 0 1-2.402-2.402V11.12a2.405 2.405 0 0 1 2.402-2.402h22.13a2.404 2.404 0 0 1 2.402 2.402l.002 13.326z"/><path d="M17.304 16.077h-.955v-.956c0-.941-.766-1.706-1.706-1.706-.942 0-1.707.766-1.707 1.706v.956h-.955c-.94 0-1.706.766-1.706 1.706 0 .942.766 1.706 1.706 1.706h.955v.956a1.708 1.708 0 0 0 3.413 0v-.956h.955c.94 0 1.707-.766 1.707-1.706s-.766-1.706-1.707-1.706zm0 2.584H15.52v1.784a.877.877 0 0 1-1.752 0V18.66h-1.784a.877.877 0 0 1 0-1.753h1.784v-1.784a.877.877 0 0 1 1.752 0v1.784h1.784a.877.877 0 0 1 0 1.753z"/></g></svg>