<svg xmlns="http://www.w3.org/2000/svg" xmlns:xlink="http://www.w3.org/1999/xlink" width="69" height="50" viewBox="0 0 69 50">
    <defs>
        <path id="a" d="M26.753.072v11.122H.313V.072h26.44z"/>
        <path id="c" d="M.358.055H26.8v11.123H.358V.055z"/>
        <path id="e" d="M0 11.505V.383h26.441v11.122H0z"/>
        <path id="g" d="M26.554 11.246H.112V.124h26.442v11.122z"/>
    </defs>
    <g fill="none" fill-rule="evenodd">
        <path fill="#424242" d="M15.28 7.22c2.145.002 3.88 1.1 5.673 2.136a28.189 28.189 0 0 0 5.386 2.425 25.83 25.83 0 0 0-5.261 2.416c-1.766 1.057-3.443 2.148-5.578 2.147-2.146-.001-3.88-1.098-5.673-2.135a28.18 28.18 0 0 0-5.386-2.426 25.82 25.82 0 0 0 5.261-2.416c1.765-1.056 3.442-2.147 5.578-2.146M2.524 12.264c2.85.729 5.312 1.97 7.842 3.417 1.607.92 3.247 1.662 5.134 1.663 1.876 0 3.49-.733 5.072-1.671 2.472-1.467 4.87-2.696 7.683-3.409.477-.12.476-.842 0-.964-2.85-.728-5.31-1.969-7.842-3.417-1.606-.919-3.246-1.661-5.133-1.662-1.876 0-3.49.732-5.072 1.671C7.736 9.36 5.337 10.588 2.524 11.3a.448.448 0 0 0-.353.485.448.448 0 0 0 .353.48"/>
        <g transform="translate(41.607 6.15)">
            <mask id="b" fill="#fff">
                <use xlink:href="#a"/>
            </mask>
            <path fill="#424242" d="M13.641 10.195c-2.145-.001-3.879-1.1-5.673-2.136a28.182 28.182 0 0 0-5.386-2.425 25.827 25.827 0 0 0 5.262-2.416c1.765-1.057 3.442-2.147 5.578-2.146 2.145 0 3.878 1.098 5.673 2.135a28.177 28.177 0 0 0 5.385 2.425 25.82 25.82 0 0 0-5.261 2.416c-1.765 1.057-3.442 2.147-5.578 2.147M26.397 5.15c-2.85-.728-5.311-1.969-7.842-3.417C16.948.814 15.308.073 13.422.072c-1.877 0-3.49.732-5.073 1.67C5.877 3.21 3.48 4.44.666 5.153a.447.447 0 0 0-.353.484.447.447 0 0 0 .353.479c2.85.729 5.31 1.97 7.842 3.417 1.606.92 3.246 1.662 5.133 1.662 1.876 0 3.49-.732 5.072-1.67 2.472-1.468 4.871-2.697 7.684-3.41.476-.12.475-.841 0-.963" mask="url(#b)"/>
        </g>
        <g transform="translate(21.053 .332)">
            <mask id="d" fill="#fff">
                <use xlink:href="#c"/>
            </mask>
            <path fill="#424242" d="M13.467 1.055c2.146 0 3.88 1.098 5.673 2.135a28.19 28.19 0 0 0 5.386 2.426 25.83 25.83 0 0 0-5.261 2.416c-1.765 1.056-3.442 2.147-5.578 2.146-2.146 0-3.88-1.098-5.673-2.135a28.156 28.156 0 0 0-5.386-2.425A25.82 25.82 0 0 0 7.89 3.202c1.764-1.057 3.442-2.148 5.577-2.147M.712 6.098c2.85.73 5.311 1.97 7.842 3.418 1.607.919 3.247 1.661 5.133 1.662 1.876 0 3.49-.732 5.072-1.671 2.472-1.467 4.871-2.697 7.683-3.409.477-.12.476-.842 0-.963-2.849-.729-5.31-1.97-7.842-3.418C16.994.798 15.354.057 13.467.055c-1.875 0-3.49.733-5.072 1.671C5.923 3.193 3.525 4.422.712 5.135a.448.448 0 0 0-.353.485.448.448 0 0 0 .353.478" mask="url(#d)"/>
        </g>
        <path fill="#424242" d="M34.74 22.857c-2.145 0-3.879-1.099-5.672-2.136a28.17 28.17 0 0 0-5.387-2.425 25.833 25.833 0 0 0 5.262-2.416c1.765-1.057 3.442-2.147 5.578-2.146 2.145 0 3.88 1.098 5.673 2.135a28.176 28.176 0 0 0 5.385 2.425 25.818 25.818 0 0 0-5.26 2.416c-1.766 1.057-3.443 2.147-5.579 2.147m12.756-5.044c-2.85-.728-5.31-1.969-7.842-3.417-1.606-.92-3.246-1.661-5.133-1.662-1.876 0-3.49.732-5.073 1.67-2.471 1.468-4.87 2.697-7.683 3.41a.448.448 0 0 0-.353.484.447.447 0 0 0 .353.479c2.85.729 5.311 1.97 7.842 3.417 1.607.92 3.247 1.662 5.133 1.662 1.877 0 3.49-.732 5.072-1.67 2.473-1.468 4.872-2.697 7.684-3.409.476-.12.475-.842 0-.964M14.866 42.455c-2.145 0-3.879-1.098-5.673-2.135a28.183 28.183 0 0 0-5.386-2.426A25.81 25.81 0 0 0 9.07 35.48c1.765-1.057 3.442-2.148 5.577-2.147 2.146.001 3.88 1.098 5.674 2.135a28.18 28.18 0 0 0 5.385 2.426 25.82 25.82 0 0 0-5.26 2.416c-1.766 1.057-3.443 2.147-5.579 2.146m12.756-5.043c-2.85-.729-5.311-1.97-7.842-3.417-1.607-.92-3.247-1.662-5.134-1.663-1.875 0-3.489.733-5.072 1.671-2.472 1.467-4.87 2.696-7.683 3.409a.447.447 0 0 0-.353.485.447.447 0 0 0 .353.479c2.85.728 5.31 1.969 7.842 3.417 1.606.919 3.247 1.661 5.133 1.662 1.876 0 3.49-.732 5.072-1.671 2.472-1.467 4.872-2.696 7.684-3.408.476-.121.475-.843 0-.964M54.615 42.455c-2.145 0-3.88-1.098-5.673-2.135a28.183 28.183 0 0 0-5.386-2.426 25.81 25.81 0 0 0 5.261-2.415c1.766-1.057 3.442-2.148 5.578-2.147 2.145.001 3.88 1.098 5.673 2.135a28.169 28.169 0 0 0 5.386 2.426 25.82 25.82 0 0 0-5.261 2.416c-1.765 1.057-3.442 2.147-5.578 2.146m12.755-5.043c-2.85-.729-5.31-1.97-7.842-3.417-1.606-.92-3.246-1.662-5.133-1.663-1.876 0-3.49.733-5.072 1.671-2.472 1.467-4.871 2.696-7.683 3.409a.447.447 0 0 0-.353.485.447.447 0 0 0 .353.479c2.849.728 5.31 1.969 7.842 3.417 1.606.919 3.246 1.661 5.133 1.662 1.876 0 3.49-.732 5.072-1.671 2.472-1.467 4.871-2.696 7.683-3.408.476-.121.476-.843 0-.964M54.615 29.84c-2.145 0-3.88-1.099-5.673-2.135a28.183 28.183 0 0 0-5.386-2.426 25.81 25.81 0 0 0 5.261-2.415c1.766-1.057 3.442-2.148 5.578-2.147 2.145 0 3.88 1.098 5.673 2.135a28.169 28.169 0 0 0 5.386 2.426 25.82 25.82 0 0 0-5.261 2.416c-1.765 1.056-3.442 2.147-5.578 2.146m12.755-5.043c-2.85-.729-5.31-1.97-7.842-3.418-1.606-.919-3.246-1.66-5.133-1.662-1.876 0-3.49.733-5.072 1.671-2.472 1.467-4.871 2.696-7.683 3.409a.447.447 0 0 0-.353.485.447.447 0 0 0 .353.478c2.849.73 5.31 1.97 7.842 3.418 1.606.919 3.246 1.661 5.133 1.661 1.876.001 3.49-.731 5.072-1.67 2.472-1.467 4.871-2.697 7.683-3.409.476-.12.476-.842 0-.963"/>
        <g transform="translate(.5 19.335)">
            <mask id="f" fill="#fff">
                <use xlink:href="#e"/>
            </mask>
            <path fill="#424242" d="M2.27 5.945a25.798 25.798 0 0 0 5.262-2.416c1.764-1.057 3.442-2.147 5.577-2.147 2.146.001 3.88 1.099 5.674 2.136a28.183 28.183 0 0 0 5.386 2.425 25.816 25.816 0 0 0-5.262 2.416c-1.765 1.057-3.442 2.147-5.578 2.147-2.145-.001-3.879-1.099-5.673-2.136A28.19 28.19 0 0 0 2.27 5.945m11.06 5.56c1.875 0 3.49-.732 5.071-1.671 2.472-1.467 4.871-2.696 7.683-3.408.477-.12.476-.842 0-.964-2.848-.729-5.31-1.969-7.841-3.417-1.607-.92-3.247-1.661-5.134-1.662-1.876 0-3.49.732-5.072 1.67C5.565 3.521 3.167 4.75.354 5.462a.448.448 0 0 0-.353.485.448.448 0 0 0 .353.479c2.849.729 5.31 1.969 7.842 3.417 1.607.919 3.246 1.661 5.133 1.662" mask="url(#f)"/>
        </g>
        <path fill="#424242" d="M33.887 26.727c2.146 0 3.88 1.098 5.673 2.135a28.17 28.17 0 0 0 5.387 2.425 25.833 25.833 0 0 0-5.262 2.416c-1.765 1.057-3.442 2.147-5.578 2.147-2.145-.001-3.88-1.099-5.673-2.136a28.17 28.17 0 0 0-5.386-2.425 25.82 25.82 0 0 0 5.261-2.416c1.766-1.057 3.443-2.147 5.578-2.146M21.132 31.77c2.85.729 5.311 1.97 7.842 3.417 1.606.92 3.246 1.662 5.133 1.662 1.876 0 3.49-.732 5.072-1.67 2.472-1.468 4.871-2.697 7.684-3.41.476-.12.475-.841 0-.963-2.85-.728-5.311-1.969-7.843-3.417-1.606-.92-3.246-1.661-5.133-1.662-1.876 0-3.49.732-5.071 1.67-2.473 1.468-4.872 2.697-7.684 3.41a.447.447 0 0 0-.353.484.448.448 0 0 0 .353.479"/>
        <g transform="translate(20.666 37.95)">
            <mask id="h" fill="#fff">
                <use xlink:href="#g"/>
            </mask>
            <path fill="#424242" d="M13.442 10.247c-2.146 0-3.88-1.099-5.674-2.136a28.183 28.183 0 0 0-5.386-2.425A25.812 25.812 0 0 0 7.644 3.27c1.765-1.057 3.442-2.147 5.578-2.146 2.145 0 3.879 1.098 5.673 2.135a28.156 28.156 0 0 0 5.386 2.425A25.82 25.82 0 0 0 19.019 8.1c-1.765 1.057-3.442 2.147-5.577 2.147m12.755-5.044c-2.85-.728-5.311-1.969-7.842-3.417C16.748.866 15.108.125 13.222.124c-1.876 0-3.49.732-5.072 1.67C5.677 3.263 3.279 4.492.466 5.205a.447.447 0 0 0-.352.484.447.447 0 0 0 .352.479c2.85.729 5.311 1.97 7.843 3.417 1.605.92 3.246 1.662 5.133 1.662 1.875 0 3.49-.732 5.072-1.67 2.471-1.468 4.87-2.697 7.683-3.409.476-.12.475-.842 0-.964" mask="url(#h)"/>
        </g>
        <path fill="#424242" d="M36.222 31.288c-.44 1.221-4.457 1.164-4.457 0 0-1.176 4.018-1.221 4.457 0m.997.133a.564.564 0 0 0 .001-.133.547.547 0 0 0-.001-.133c-.33-2.425-6.462-2.399-6.462.133s6.132 2.558 6.462.133M36.855 5.949c-.44 1.221-4.457 1.163-4.457 0 0-1.176 4.018-1.221 4.457 0m.997.133a.547.547 0 0 0 .001-.133.544.544 0 0 0 0-.133c-.331-2.425-6.462-2.4-6.462.133 0 2.532 6.13 2.557 6.461.133"/>
    </g>
</svg>
