<?xml version="1.0" standalone="no"?>
<!DOCTYPE svg PUBLIC "-//W3C//DTD SVG 20010904//EN"
 "http://www.w3.org/TR/2001/REC-SVG-20010904/DTD/svg10.dtd">
<svg version="1.0" xmlns="http://www.w3.org/2000/svg"
 width="1772.000000pt" height="1772.000000pt" viewBox="0 0 1772.000000 1772.000000"
 preserveAspectRatio="xMidYMid meet">
<metadata>
Created by potrace 1.11, written by Peter Selinger 2001-2013
</metadata>
<g transform="translate(0.000000,1772.000000) scale(0.100000,-0.100000)"
fill="#000000" stroke="none">
<path d="M7860 17220 c-41 -4 -111 -10 -155 -14 -44 -4 -87 -9 -95 -11 -8 -2
-40 -6 -70 -10 -63 -6 -58 -5 -250 -40 -176 -31 -446 -103 -656 -176 -897
-309 -1690 -889 -2258 -1654 -104 -138 -306 -443 -306 -460 0 -2 -14 -28 -31
-57 -49 -83 -172 -332 -224 -453 -120 -282 -220 -597 -283 -897 -22 -102 -27
-184 -26 -398 0 -135 5 -174 32 -300 17 -80 34 -165 37 -190 3 -25 8 -56 10
-70 15 -99 21 -432 10 -575 -2 -33 -7 -94 -10 -135 -3 -41 -8 -97 -11 -125 -3
-27 -7 -68 -9 -90 -2 -22 -7 -76 -12 -120 -16 -162 -6 -426 21 -568 52 -270
84 -382 240 -832 48 -141 99 -399 131 -674 4 -30 9 -63 11 -75 2 -11 10 -59
18 -106 21 -122 52 -212 80 -239 32 -30 127 -39 211 -20 33 7 62 13 65 14 36
7 153 54 221 89 177 89 294 182 381 302 54 74 144 255 192 386 61 166 150 493
171 628 3 19 7 46 10 60 41 215 41 812 1 1035 -3 17 -8 48 -11 70 -7 43 -39
152 -60 200 -7 17 -36 82 -65 145 -71 155 -142 318 -180 415 -33 81 -118 317
-125 345 -2 8 -18 69 -35 135 -58 223 -75 346 -75 545 l1 135 63 185 c35 102
66 190 70 195 4 6 16 33 26 60 26 71 146 311 189 378 20 31 36 59 36 62 0 17
186 282 283 402 422 525 995 922 1639 1137 119 40 186 60 240 72 10 2 26 6 36
8 72 18 153 36 182 40 19 3 46 8 60 10 207 36 408 52 626 50 158 -1 322 -9
372 -19 9 -1 44 -6 77 -9 71 -8 88 -11 225 -37 576 -110 1195 -409 1620 -785
253 -224 418 -403 588 -642 362 -506 578 -1081 646 -1717 14 -127 16 -628 3
-685 -3 -14 -8 -52 -11 -85 -3 -33 -8 -71 -10 -85 -3 -14 -7 -43 -10 -65 -8
-61 -33 -180 -56 -275 -12 -47 -23 -94 -25 -105 -3 -11 -24 -81 -49 -155 -225
-696 -655 -1296 -1253 -1748 -194 -147 -575 -309 -898 -382 -49 -11 -108 -25
-130 -30 -22 -5 -57 -12 -79 -15 -21 -3 -41 -7 -45 -9 -9 -6 -145 -21 -286
-31 -125 -10 -189 -15 -255 -21 -123 -11 -135 -12 -215 -19 -44 -3 -96 -8
-115 -10 -19 -3 -64 -7 -100 -10 -36 -3 -81 -7 -100 -10 -19 -2 -62 -7 -95
-10 -53 -5 -419 -48 -515 -60 -19 -2 -69 -9 -110 -15 -41 -6 -84 -13 -95 -14
-56 -9 -122 -19 -140 -22 -11 -2 -33 -6 -50 -9 -53 -9 -79 -14 -155 -29 -110
-22 -532 -151 -625 -191 -16 -7 -41 -16 -55 -20 -87 -27 -402 -171 -536 -245
-414 -232 -697 -509 -859 -842 -102 -208 -148 -415 -149 -668 -1 -223 5 -271
60 -445 178 -558 759 -983 1724 -1260 148 -42 374 -99 480 -120 8 -2 60 -12
115 -24 55 -11 127 -25 160 -31 33 -5 71 -12 85 -15 43 -9 232 -34 300 -40 36
-3 76 -8 90 -10 14 -2 52 -7 85 -10 33 -3 78 -8 100 -10 22 -3 63 -7 90 -10
28 -3 66 -8 85 -10 19 -2 60 -7 90 -10 30 -3 66 -8 80 -10 14 -3 46 -7 72 -10
26 -3 78 -9 115 -15 38 -5 86 -12 108 -15 22 -3 49 -8 61 -10 11 -3 40 -7 65
-10 24 -3 55 -7 69 -10 14 -3 39 -8 55 -11 684 -121 1106 -304 1214 -528 107
-219 -32 -407 -461 -623 l-108 -54 0 -450 c0 -385 2 -449 14 -449 28 0 462
148 586 200 627 262 976 576 1094 983 93 321 23 721 -177 1017 -176 260 -475
485 -869 654 -21 9 -53 22 -70 30 -85 37 -256 95 -448 154 -142 43 -505 130
-700 168 -41 8 -86 16 -100 19 -14 3 -50 9 -80 15 -60 11 -92 17 -130 25 -14
2 -38 7 -55 9 -16 3 -113 19 -215 36 -102 18 -194 33 -205 35 -241 34 -810
141 -939 176 -22 6 -48 13 -56 14 -8 2 -44 11 -80 20 -36 9 -75 18 -87 21 -12
2 -35 9 -50 15 -16 6 -28 10 -28 9 0 -13 -284 85 -392 135 -247 116 -368 247
-380 417 -16 224 168 434 517 589 157 70 467 170 570 184 28 4 82 13 120 20
42 8 83 14 130 20 25 3 56 7 70 10 14 3 44 8 68 10 47 6 98 12 157 19 35 4 85
9 235 22 19 1 132 5 250 8 230 7 439 15 506 20 91 8 180 17 204 21 14 3 45 7
70 10 25 3 70 9 100 15 30 5 69 11 85 14 24 3 170 34 245 51 13 3 97 24 200
51 67 17 278 87 385 127 177 67 251 99 455 202 80 39 175 91 213 114 37 22 70
41 73 41 3 0 24 13 47 28 23 16 92 62 152 102 129 86 234 165 359 269 135 112
138 115 281 256 178 176 257 266 428 485 33 42 119 165 172 245 32 50 66 101
75 115 17 25 38 61 118 205 103 184 236 485 310 700 55 160 121 385 136 465 3
14 12 59 21 100 20 92 21 94 30 150 4 25 9 54 11 65 7 36 12 69 23 145 9 67
14 109 27 240 21 217 21 739 0 856 -2 10 -7 51 -10 89 -8 85 -32 251 -46 326
-6 30 -13 70 -16 89 -3 19 -7 43 -10 52 -3 10 -7 30 -10 45 -11 67 -88 346
-129 468 -194 583 -509 1143 -894 1589 -96 112 -127 145 -229 250 -584 595
-1308 1024 -2112 1251 -52 15 -103 29 -112 31 -10 2 -26 6 -35 8 -39 9 -109
25 -133 30 -151 30 -203 39 -315 56 -71 10 -161 22 -200 25 -38 3 -86 9 -105
11 -56 9 -628 12 -710 4z m-3655 -6734 c37 -24 68 -98 59 -139 -15 -72 -72
-116 -143 -112 -134 8 -176 184 -59 255 38 23 105 21 143 -4z"/>
<path d="M12384 8492 l-110 -3 0 -1562 1 -1562 -680 1 c-374 0 -683 -1 -688
-3 -4 -2 16 -24 45 -49 165 -140 325 -381 393 -587 24 -74 27 -87 39 -157 3
-19 9 -51 12 -70 4 -19 8 -110 9 -201 3 -176 -13 -300 -55 -441 -11 -36 -20
-68 -20 -70 0 -2 211 -3 470 -3 309 0 471 -3 473 -10 1 -5 2 -711 2 -1567 -1
-1096 2 -1558 9 -1559 6 -1 388 -2 849 -3 l837 -1 0 3922 0 3923 -127 0 c-71
0 -402 1 -738 3 -335 1 -660 1 -721 -1z"/>
<path d="M9021 7628 c-53 -9 -89 -14 -201 -28 -180 -21 -133 -19 -745 -35
-164 -4 -219 -8 -315 -19 -25 -3 -67 -9 -94 -12 -27 -3 -57 -7 -66 -9 -9 -2
-41 -6 -70 -10 -29 -4 -61 -8 -71 -10 -9 -2 -38 -7 -63 -10 l-46 -7 0 -107
c-1 -58 -2 -283 -4 -498 -3 -287 -1 -393 8 -394 6 0 18 -2 26 -4 16 -4 34 -8
280 -53 91 -17 179 -33 195 -36 17 -3 68 -13 115 -21 47 -8 99 -18 115 -21 17
-4 39 -7 50 -9 11 -1 36 -5 55 -8 54 -10 322 -59 350 -63 14 -2 45 -8 70 -14
25 -5 99 -19 165 -31 66 -12 158 -30 205 -39 47 -9 87 -16 88 -14 5 3 5 1454
1 1458 -2 1 -24 -1 -48 -6z"/>
<path d="M4199 5368 c-3 -7 -4 -357 -4 -778 l1 -765 1582 -3 1582 -2 0 -43 c1
-23 1 -738 1 -1589 l0 -1548 853 0 853 0 1 1558 c0 856 1 1564 1 1573 1 12 15
15 74 14 80 -1 184 24 312 74 200 77 340 201 361 319 3 12 -4 42 -15 66 -65
147 -326 269 -771 360 -83 17 -343 61 -405 70 -22 3 -74 10 -115 16 -122 17
-143 20 -190 25 -25 3 -61 7 -80 10 -55 8 -100 13 -165 20 -33 3 -71 8 -85 10
-14 3 -47 7 -75 10 -27 3 -61 8 -75 10 -14 2 -97 13 -185 25 -88 11 -171 22
-185 25 -14 2 -45 7 -70 10 -138 19 -523 87 -680 120 -353 75 -695 192 -1079
372 l-93 43 -673 5 c-537 4 -673 3 -676 -7z"/>
<path d="M7010 2987 c-57 -24 -109 -46 -185 -77 -44 -18 -113 -48 -153 -67
-41 -18 -76 -33 -78 -33 -11 0 -314 -152 -414 -208 -614 -343 -956 -736 -1007
-1160 -15 -122 -2 -342 19 -342 6 0 9 3 6 6 -9 8 36 138 74 214 41 84 79 140
142 215 55 66 56 66 142 142 234 206 678 409 1299 594 94 28 174 55 179 59 8
8 13 656 5 664 -2 2 -15 -1 -29 -7z"/>
</g>
</svg>
