<?xml version="1.0" standalone="no"?>
<!DOCTYPE svg PUBLIC "-//W3C//DTD SVG 20010904//EN"
 "http://www.w3.org/TR/2001/REC-SVG-20010904/DTD/svg10.dtd">
<svg version="1.0" xmlns="http://www.w3.org/2000/svg"
 width="195.000000pt" height="195.000000pt" viewBox="0 0 195.000000 195.000000"
 preserveAspectRatio="xMidYMid meet">
<metadata>
Created by potrace 1.11, written by Peter Selinger 2001-2013
</metadata>
<g transform="translate(0.000000,195.000000) scale(0.100000,-0.100000)"
fill="#000000" stroke="none">
<path d="M870 1929 c-39 -10 -84 -27 -100 -39 -15 -11 -32 -20 -37 -20 -16 0
-122 -119 -143 -160 -20 -39 -55 -159 -66 -226 -6 -41 40 -188 77 -239 15 -22
43 -55 62 -72 32 -31 33 -36 29 -87 -3 -42 1 -65 17 -99 24 -49 77 -106 118
-128 16 -8 30 -17 33 -21 5 -6 5 -98 1 -118 -1 -3 -68 -6 -151 -6 -92 0 -154
-4 -160 -10 -11 -11 -17 -211 -6 -221 3 -3 55 -6 116 -6 l110 0 0 -29 c0 -38
33 -101 66 -127 25 -19 28 -29 29 -89 2 -48 -2 -72 -13 -85 -34 -39 -39 -60
-24 -94 20 -42 46 -49 167 -43 l100 5 3 42 c2 30 12 51 33 74 28 30 31 38 31
79 0 42 -3 50 -32 83 -28 32 -30 41 -30 109 l0 74 149 1 c82 0 156 3 165 6 25
10 24 208 -1 222 -10 6 -64 10 -120 10 l-103 -2 0 42 c0 44 -46 130 -75 141
-12 5 -15 24 -15 88 l0 81 68 33 c76 36 156 108 196 175 34 60 63 170 61 238
-3 109 -56 230 -135 309 -38 38 -110 80 -168 100 -85 28 -165 31 -252 9z m238
-177 c100 -52 154 -140 154 -252 0 -161 -126 -284 -284 -279 -35 1 -93 2 -129
2 l-67 1 -6 45 c-3 25 -22 92 -41 148 -40 119 -41 133 -16 189 70 154 245 220
389 146z"/>
</g>
</svg>
