<svg xmlns="http://www.w3.org/2000/svg" width="15" height="14" viewBox="0 0 15 14"><path fill="#4C4C4C" fill-rule="evenodd" d="M12.187 10.39h-1.875V6.605c0-.444-.135-.755-.72-.755-.968 0-1.155.755-1.155.755v3.787H6.562V4.266h1.875v.585a3.277 3.277 0 0 1 1.875-.585c.608 0 1.875.34 1.875 2.391v3.734zm-7.441-6.5c-.486 0-.879-.367-.879-.82 0-.454.394-.821.879-.821s.879.368.879.82c0 .454-.394.821-.88.821zm-.996 6.5h1.875V4.267H3.75v6.125zM7.5 0C3.358 0 0 3.134 0 7s3.358 7 7.5 7c4.142 0 7.5-3.134 7.5-7 0-3.867-3.358-7-7.5-7z"/></svg>